<svg width="517" height="564" viewBox="0 0 517 564" fill="none" xmlns="http://www.w3.org/2000/svg">
<g clip-path="url(#clip0_1077_2)">
<path d="M167.982 69.5997C167.982 50.4697 167.972 31.3397 167.992 12.1997C168.002 4.35968 171.862 -0.0603225 178.582 -0.0103225C185.272 0.0396775 188.942 4.42968 188.972 12.3997C188.972 12.7297 188.972 13.0697 188.972 13.3997C188.982 24.9397 188.982 24.9397 200.462 25.7897C344.922 36.5297 464.502 134.15 503.662 273.53C515.562 315.9 519.342 359.07 515.292 402.92C514.942 406.66 513.722 407.51 510.192 407.4C501.702 407.13 493.202 407.5 484.712 407.23C480.952 407.11 479.602 407.94 479.702 412.04C480.002 424.34 479.672 436.66 479.902 448.97C479.972 452.54 478.912 453.85 475.462 453.24C475.302 453.21 475.132 453.22 474.962 453.24C471.032 453.58 465.832 451.48 463.532 454.13C461.602 456.36 462.832 461.4 462.832 465.19C462.802 496.3 462.782 527.41 462.872 558.52C462.882 561.65 462.612 563.18 458.742 563.22C454.592 563.26 454.792 561.23 454.792 558.35C454.852 524.91 454.762 491.47 454.922 458.03C454.942 454.11 453.942 453.04 450.012 453.13C438.842 453.37 438.832 453.18 438.832 441.81C438.832 431.5 438.732 421.18 438.892 410.87C438.932 408.03 438.112 407.14 435.262 407.25C429.612 407.46 423.932 407.19 418.282 407.36C415.242 407.45 414.152 407.06 414.452 403.35C419.242 344.11 406.582 288.88 374.032 238.99C331.362 173.57 270.562 135.3 193.762 121.95C189.682 121.24 188.752 122.49 188.872 126.41C189.122 134.67 186.042 138.95 180.012 139.7C173.042 140.57 168.022 135.97 168.002 128.48C167.942 108.87 167.982 89.2297 167.982 69.5997Z" fill="#2B6393"/>
<path d="M217.79 383.339C217.81 352.059 217.79 320.789 217.92 289.509C217.93 286.269 217.06 285.299 213.76 285.329C193.94 285.479 174.08 284.579 154.32 285.659C137.62 286.569 125.93 296.709 117.85 310.979C116.16 313.959 114.96 317.209 113.12 321.219C113.12 318.309 113.12 316.269 113.12 314.239C113.12 277.469 113.19 240.709 113.02 203.939C113 199.839 113.98 198.679 118.18 198.699C149.82 198.879 181.47 198.879 213.11 198.709C217.48 198.689 218.98 199.549 218.93 204.309C218.67 229.759 218.9 255.219 218.71 280.669C218.68 284.709 219.91 285.589 223.73 285.539C239.88 285.329 256.08 286.229 272.18 285.259C292.71 284.019 312.61 300.259 318.67 319.359C327.31 346.579 311.17 375.649 283.38 382.809C281.23 383.359 279.12 383.469 276.96 383.469C257.64 383.509 238.33 383.549 219.01 383.579C218.57 383.779 218.15 383.719 217.79 383.339Z" fill="#4295BF"/>
<path d="M217.792 383.339C218.202 383.419 218.622 383.489 219.032 383.569C219.002 411.169 218.492 438.779 219.112 466.369C219.502 483.599 212.002 496.059 198.842 505.729C171.502 525.809 130.762 515.969 116.432 486.029C114.192 481.349 112.922 476.509 112.942 471.179C113.072 431.769 113.012 392.369 113.012 352.959C113.012 351.179 113.012 349.399 113.012 347.609C117.192 359.239 123.792 368.909 134.102 375.799C141.582 380.789 149.612 383.639 158.872 383.479C178.512 383.139 198.152 383.349 217.792 383.339Z" fill="#56C2E5"/>
<path d="M103.022 68.3499C103.022 52.5599 103.012 36.7699 103.022 20.9799C103.032 14.1199 106.272 10.1099 111.812 9.98989C117.592 9.86989 120.962 13.9399 120.992 21.0899C121.052 32.9399 121.052 32.9399 132.722 32.9399C141.042 32.9399 149.362 33.0399 157.682 32.8799C160.332 32.8299 161.042 33.6599 161.032 36.2599C160.942 59.3599 160.932 82.4599 161.042 105.57C161.052 108.28 160.142 108.89 157.612 108.86C146.802 108.74 135.982 108.91 125.172 108.75C122.082 108.7 120.452 109.31 120.972 112.77C121.192 114.23 121.042 115.76 121.002 117.25C120.832 122.85 117.342 126.64 112.252 126.77C106.972 126.91 103.082 123.02 103.062 117.21C102.972 100.92 103.022 84.6299 103.022 68.3499Z" fill="#2B6393"/>
<path d="M77.1507 132.779C85.9807 132.779 94.8007 132.859 103.631 132.729C106.161 132.689 107.081 133.309 107.061 136.029C106.941 153.499 106.941 170.969 107.061 188.429C107.081 191.149 106.161 191.739 103.631 191.729C85.8107 191.639 67.9907 191.649 50.1707 191.719C47.8607 191.729 46.9807 191.149 47.0007 188.679C47.0907 171.049 47.1207 153.409 46.9807 135.779C46.9607 132.739 48.4707 132.739 50.6707 132.759C59.5007 132.819 68.3207 132.779 77.1507 132.779Z" fill="#2B6393"/>
<path d="M22.3009 86.8599C28.3009 86.8599 34.2909 86.9599 40.2809 86.8099C42.8609 86.7499 44.1509 87.1199 44.1009 90.2299C43.9309 102.7 43.9809 115.18 44.0709 127.66C44.0909 129.96 43.5109 130.85 41.0309 130.83C28.3709 130.72 15.7209 130.72 3.06092 130.83C0.590916 130.85 0.000915995 129.97 0.010916 127.66C0.120916 115.18 0.170916 102.7 0.000915995 90.2299C-0.039084 87.1299 1.23092 86.7399 3.82092 86.8099C9.98092 86.9599 16.1409 86.8599 22.3009 86.8599Z" fill="#2B6393"/>
<path d="M327 163.77C357.26 163.77 386.04 163.77 414.83 163.77C418.16 163.77 421.55 164.2 424.81 163.71C430.9 162.79 434.38 165.58 437.9 170.25C473.73 217.84 496.02 271.02 504.52 329.93C507.49 350.55 508.3 371.31 507.65 392.14C507.53 396.07 506.54 397.49 502.29 397.45C477.98 397.23 453.66 397.22 429.34 397.46C424.79 397.5 424.19 396.46 424.49 391.99C429.29 321.82 410.13 258.96 366.28 203.76C354.88 189.41 341.96 176.53 327 163.77Z" fill="#FEFEFE"/>
</g>
<defs>
<clipPath id="clip0_1077_2">
<rect width="516.84" height="563.24" fill="white"/>
</clipPath>
</defs>
</svg>
